<?xml version="1.0" encoding="UTF-8"?>
<svg xmlns="http://www.w3.org/2000/svg" xmlns:xlink="http://www.w3.org/1999/xlink" viewBox="0 0 48 48" width="48px" height="48px">
<g id="surface128763498">
<path style=" stroke:none;fill-rule:nonzero;fill:rgb(100%,100%,100%);fill-opacity:1;" d="M 43.199219 3.839844 L 4.800781 3.839844 C 4.269531 3.839844 3.839844 4.269531 3.839844 4.800781 L 3.839844 43.199219 C 3.839844 43.730469 4.269531 44.160156 4.800781 44.160156 L 43.199219 44.160156 C 43.730469 44.160156 44.160156 43.730469 44.160156 43.199219 L 44.160156 4.800781 C 44.160156 4.269531 43.730469 3.839844 43.199219 3.839844 Z M 27.839844 25.386719 L 23.039062 25.386719 L 23.039062 40.320312 L 19.199219 40.320312 L 19.199219 25.386719 L 14.398438 25.386719 L 14.398438 22.078125 L 27.839844 22.078125 Z M 28.917969 39.46875 L 28.917969 35.476562 C 28.917969 35.476562 31.097656 37.121094 33.710938 37.121094 C 36.328125 37.121094 36.226562 35.410156 36.226562 35.175781 C 36.226562 32.691406 28.816406 32.691406 28.816406 27.191406 C 28.816406 19.710938 39.617188 22.664062 39.617188 22.664062 L 39.480469 26.21875 C 39.480469 26.21875 37.667969 25.011719 35.625 25.011719 C 33.578125 25.011719 32.839844 25.984375 32.839844 27.023438 C 32.839844 29.707031 40.320312 29.4375 40.320312 34.839844 C 40.320312 43.15625 28.917969 39.46875 28.917969 39.46875 Z M 28.917969 39.46875 "/>
</g>
</svg>
